<?xml version="1.0" standalone="no"?>
<!DOCTYPE svg PUBLIC "-//W3C//DTD SVG 20010904//EN"
 "http://www.w3.org/TR/2001/REC-SVG-20010904/DTD/svg10.dtd">
<svg version="1.0" xmlns="http://www.w3.org/2000/svg"
 width="900.000000pt" height="900.000000pt" viewBox="0 0 900.000000 900.000000"
 preserveAspectRatio="xMidYMid meet">
<metadata>
Created by potrace 1.16, written by Peter Selinger 2001-2019
</metadata>
<g transform="translate(0.000000,900.000000) scale(0.100000,-0.100000)"
fill="#eaeaea" stroke="none">
<path d="M5950 8778 c0 -53 -21 -99 -96 -210 -65 -95 -168 -215 -254 -293 -30
-27 -77 -72 -105 -100 -27 -27 -52 -50 -56 -50 -3 0 -32 -23 -65 -51 -32 -28
-104 -86 -159 -129 -55 -44 -113 -92 -128 -107 -16 -15 -33 -28 -38 -28 -6 0
-35 -19 -65 -42 -136 -104 -169 -128 -178 -128 -6 0 -27 -15 -48 -33 -20 -17
-50 -40 -66 -50 l-31 -17 6 185 c5 136 3 185 -5 185 -7 0 -12 -3 -12 -7 0 -5
-19 -29 -43 -55 -23 -26 -71 -83 -106 -127 -36 -45 -69 -81 -73 -81 -4 0 -8
-5 -8 -10 0 -13 -120 -160 -130 -160 -4 0 -23 -24 -43 -53 -19 -30 -59 -78
-87 -108 -29 -30 -68 -78 -87 -107 -19 -29 -43 -58 -52 -65 -24 -18 -111 -123
-111 -134 0 -5 -13 -21 -29 -35 -15 -14 -55 -59 -87 -99 -76 -95 -69 -88 -144
-139 -36 -24 -75 -53 -87 -65 -12 -12 -46 -33 -75 -48 -30 -15 -69 -41 -88
-59 -29 -26 -349 -188 -599 -303 -35 -17 -70 -35 -76 -41 -6 -7 -40 -26 -75
-44 -58 -29 -99 -63 -100 -82 0 -11 -75 -133 -97 -157 -10 -12 -34 -49 -53
-84 -19 -34 -52 -89 -73 -120 -21 -32 -54 -88 -73 -125 -19 -36 -39 -69 -44
-72 -4 -3 -27 -41 -51 -85 -23 -44 -59 -106 -80 -138 -22 -32 -39 -60 -39 -63
0 -8 -83 -140 -100 -159 -10 -11 -35 -51 -55 -89 -20 -38 -42 -74 -48 -81 -7
-7 -28 -39 -48 -71 -38 -62 -49 -69 -172 -119 -38 -15 -74 -33 -80 -39 -7 -6
-50 -33 -97 -60 -47 -27 -120 -73 -163 -102 -43 -30 -82 -54 -86 -54 -4 0 -41
-32 -82 -70 -41 -39 -85 -78 -99 -86 -14 -9 -38 -32 -53 -52 -15 -21 -51 -63
-80 -95 -47 -53 -100 -136 -145 -227 -9 -19 -23 -41 -29 -48 -20 -21 -15 -48
10 -64 30 -20 60 -26 148 -33 72 -6 159 -36 159 -56 0 -5 4 -9 10 -9 13 0 146
-85 174 -111 11 -11 50 -34 85 -51 59 -28 69 -30 136 -24 l72 7 104 -108 c176
-182 280 -274 543 -485 43 -35 86 -67 95 -73 46 -29 121 -83 159 -116 23 -20
62 -46 87 -58 24 -11 52 -29 62 -40 23 -24 164 -111 180 -111 6 0 16 -6 20
-13 4 -7 32 -27 61 -45 85 -52 95 -42 29 29 -45 47 -237 329 -237 347 0 13
-39 82 -57 100 -17 17 -33 48 -38 70 -2 9 -28 63 -59 118 -30 56 -64 128 -75
160 -12 32 -24 60 -29 63 -20 15 -127 314 -119 335 3 7 40 22 83 35 44 13 120
37 170 52 l90 29 95 -51 c52 -28 121 -58 153 -66 33 -7 65 -17 70 -22 16 -13
144 -39 196 -40 25 0 66 -3 93 -7 31 -4 47 -2 47 5 0 6 -4 11 -8 11 -4 0 -33
22 -63 50 -29 27 -65 55 -79 62 -30 15 -153 109 -159 121 -2 5 -14 12 -27 17
-31 12 -31 30 0 30 14 0 62 14 108 31 131 48 200 70 237 75 19 2 39 8 45 13 6
5 28 14 48 20 29 10 42 10 60 -1 32 -17 82 -35 153 -54 49 -13 87 -15 209 -9
143 7 148 8 120 23 -16 8 -31 18 -34 22 -7 10 -90 52 -90 45 0 -3 -28 9 -62
26 l-63 32 30 9 c17 4 55 10 85 13 30 3 82 11 115 16 135 24 162 23 413 -8 42
-5 141 -49 163 -72 9 -10 37 -34 61 -54 42 -35 94 -118 101 -162 1 -11 7 -27
12 -35 13 -19 9 -358 -3 -373 -9 -11 -20 -60 -26 -120 -4 -32 -35 -137 -51
-172 -7 -16 -21 -61 -30 -100 -33 -134 -107 -400 -116 -411 -4 -5 -24 -73 -44
-149 -19 -76 -44 -157 -54 -179 -10 -23 -27 -67 -37 -100 -10 -32 -23 -64 -30
-71 -6 -6 -22 -31 -34 -56 -12 -24 -33 -58 -46 -76 -13 -17 -24 -36 -24 -40 0
-14 -91 -78 -159 -112 -66 -34 -180 -65 -204 -55 -8 3 -18 1 -22 -5 -3 -6 -17
-11 -31 -11 -35 0 -29 -11 29 -48 92 -59 156 -75 279 -68 59 3 124 12 143 20
l36 15 -19 -37 c-87 -175 -128 -272 -187 -438 l-22 -62 -46 23 c-26 12 -47 21
-47 19 0 -7 88 -85 150 -134 36 -28 74 -63 85 -78 l20 -27 -30 19 c-43 28
-333 255 -337 265 -2 4 -28 24 -59 44 -31 20 -71 51 -90 69 -69 66 -79 72 -79
56 0 -8 21 -37 48 -64 26 -27 60 -68 76 -91 15 -23 50 -65 77 -93 27 -28 49
-54 49 -57 0 -8 238 -293 287 -342 l43 -44 85 6 c47 3 85 3 85 -1 0 -4 -30
-20 -66 -35 -169 -72 -254 -32 -254 120 0 61 -3 72 -25 91 l-25 22 -4 -23
c-11 -53 -14 -187 -6 -219 21 -73 108 -138 187 -138 41 0 111 -19 258 -69 49
-17 96 -31 103 -31 7 0 38 -11 68 -25 30 -14 74 -29 97 -35 116 -27 158 -3
224 128 l46 93 -32 33 c-33 34 -33 34 -27 112 3 44 12 104 20 134 8 30 24 96
36 145 37 154 51 196 71 213 10 9 19 22 19 29 0 14 75 138 101 168 10 11 31
48 48 81 17 34 41 75 54 90 31 38 107 167 107 182 0 7 4 12 8 12 8 0 54 76
114 187 18 34 44 76 58 94 14 17 25 34 25 38 0 3 10 23 22 44 l23 38 32 -37
c18 -21 33 -40 33 -44 0 -4 22 -28 49 -55 26 -27 66 -73 88 -103 23 -30 67
-82 99 -115 33 -33 59 -65 59 -71 0 -6 30 -43 68 -82 37 -39 80 -90 96 -112
16 -23 49 -61 73 -84 24 -24 50 -54 58 -68 7 -14 41 -54 74 -90 34 -35 61 -66
61 -69 0 -4 92 -112 136 -161 60 -66 172 -195 197 -228 16 -20 57 -68 92 -107
35 -38 83 -95 107 -125 24 -30 52 -56 62 -58 15 -3 16 3 12 45 -20 179 -27
283 -22 291 3 5 1 56 -5 113 -6 57 -12 160 -14 229 -3 68 -9 168 -16 222 -6
54 -8 105 -5 114 4 9 -1 88 -9 175 -9 88 -14 163 -10 169 3 5 -1 79 -10 165
-8 85 -13 165 -10 178 4 17 -2 27 -27 44 -18 13 -59 47 -90 76 -32 29 -58 51
-58 49 0 -5 -111 88 -155 130 -16 15 -65 56 -107 90 -43 34 -78 65 -78 69 0 4
-28 27 -62 52 -35 24 -81 63 -103 86 -22 23 -58 54 -80 69 -22 15 -78 62 -124
104 -46 43 -90 78 -97 78 -7 0 -21 10 -31 23 -26 33 -160 147 -172 147 -6 0
-11 4 -11 8 0 12 -156 142 -170 142 -6 0 -13 6 -16 14 -6 16 -147 136 -161
136 -4 0 -30 23 -58 52 -27 28 -76 68 -107 89 -31 22 -63 47 -70 56 -26 34
-88 87 -94 80 -4 -3 7 -28 23 -54 38 -60 51 -113 60 -245 10 -138 9 -211 -6
-353 -17 -157 -62 -368 -97 -450 -7 -16 -20 -59 -29 -95 -42 -165 -59 -225
-65 -230 -9 -7 -41 -127 -46 -175 -3 -22 -9 -44 -14 -50 -4 -5 -13 -35 -19
-65 -34 -169 -44 -216 -51 -225 -8 -12 -31 -123 -36 -176 -2 -20 -11 -70 -20
-110 -28 -126 -42 -213 -37 -225 2 -7 0 -22 -6 -33 -6 -11 -14 -64 -16 -118
-3 -54 -10 -122 -15 -152 -6 -30 -10 -72 -10 -92 0 -34 -9 -47 -112 -148
l-111 -111 -21 19 c-12 11 -32 26 -46 33 -38 19 -126 90 -140 112 -12 18 38
-14 87 -57 34 -30 51 -9 52 61 0 31 5 82 11 112 5 30 14 91 20 135 25 190 33
241 40 250 7 10 29 112 36 168 5 37 32 147 43 172 5 11 14 45 20 75 6 30 18
67 25 82 8 14 24 61 36 105 37 131 73 238 81 243 4 3 10 19 14 35 12 53 38
130 45 135 9 6 48 128 56 174 7 40 41 151 53 175 6 10 15 49 21 87 6 37 15 73
19 79 10 12 32 115 36 165 4 71 17 156 26 181 24 63 13 499 -12 499 -5 0 -9 7
-9 16 0 32 -62 146 -103 189 -50 52 -172 135 -199 135 -10 0 -47 9 -81 21 -35
12 -99 23 -146 25 -47 3 -86 6 -88 8 -7 7 306 17 333 11 16 -4 47 -15 69 -25
22 -9 57 -23 78 -31 35 -12 227 -163 254 -200 21 -28 379 -356 473 -434 25
-20 79 -68 120 -106 41 -38 78 -69 83 -69 5 0 41 -32 80 -70 38 -39 75 -70 82
-70 6 0 38 -27 71 -60 34 -32 87 -79 120 -103 32 -24 79 -65 104 -90 25 -26
49 -47 53 -47 5 0 50 -36 100 -80 51 -44 160 -136 242 -206 83 -69 158 -137
168 -150 10 -13 23 -24 29 -24 12 0 125 -95 151 -128 10 -12 31 -29 45 -36 15
-8 54 -40 87 -71 33 -31 90 -79 128 -107 37 -27 67 -53 67 -57 0 -5 33 -34 73
-65 39 -32 88 -72 107 -89 87 -80 329 -277 339 -277 6 0 14 -7 17 -15 7 -17
137 -125 151 -125 14 0 -8 63 -51 155 -18 39 -39 88 -46 110 -22 68 -111 286
-155 380 -24 50 -48 108 -55 130 -7 22 -28 72 -46 111 -19 39 -34 76 -34 82 0
16 -60 166 -69 172 -10 7 -61 136 -61 154 0 8 -4 16 -8 18 -5 2 -22 39 -39 83
-85 224 -98 255 -105 255 -3 0 -10 15 -13 32 -8 36 -45 130 -55 138 -7 6 -56
130 -91 228 -12 34 -25 62 -29 62 -5 0 -12 15 -15 32 -8 37 -66 180 -76 188
-3 3 -21 43 -39 90 -19 47 -46 112 -61 145 -15 33 -31 74 -35 90 -9 42 -66
178 -79 191 -6 6 -17 31 -24 55 -7 24 -17 54 -22 67 -6 15 -5 30 1 40 5 9 10
14 10 10 0 -9 143 76 182 108 15 12 56 36 90 53 35 18 81 45 104 61 22 16 72
46 110 66 38 20 71 39 74 43 8 11 109 71 120 71 18 0 200 115 200 127 0 6 -9
15 -21 18 -22 7 -305 202 -354 244 -17 14 -61 44 -98 65 -37 22 -67 43 -67 46
0 10 -145 110 -159 110 -6 0 -11 4 -11 8 0 10 -163 122 -177 122 -5 0 -22 13
-39 28 -31 30 -118 92 -129 92 -11 0 -99 62 -133 94 -18 17 -35 30 -38 29 -17
-11 -3 6 59 70 40 40 180 185 312 322 132 136 261 270 288 297 26 26 47 50 47
52 0 1 -12 3 -27 4 -16 0 -62 13 -103 27 -41 15 -104 33 -139 41 -35 8 -75 20
-90 28 -28 14 -142 47 -176 51 -29 3 -135 34 -170 49 -16 8 -82 29 -145 47
l-116 33 22 65 c12 36 30 93 39 126 10 33 22 71 28 85 6 14 10 28 9 31 -1 4
12 47 29 95 54 159 146 564 133 585 -3 5 0 18 6 30 15 26 16 375 2 392 -5 7
-16 32 -23 57 -16 54 -69 135 -141 212 -57 61 -157 148 -170 148 -4 0 -8 -19
-8 -42z m170 -169 c0 -4 21 -38 46 -76 76 -110 77 -114 75 -323 0 -102 -5
-198 -10 -215 -10 -31 -18 -85 -26 -170 -7 -74 -13 -99 -52 -225 -68 -224
-124 -359 -221 -533 -21 -38 -47 -79 -59 -92 -20 -23 -78 -104 -98 -137 -5 -9
-47 -57 -92 -107 -46 -50 -83 -95 -83 -101 0 -5 -5 -10 -11 -10 -12 0 -121
-82 -161 -121 -15 -14 -42 -33 -60 -42 -19 -9 -55 -35 -81 -58 -26 -23 -78
-62 -116 -88 -37 -25 -104 -72 -149 -103 -44 -32 -84 -58 -89 -58 -5 0 -26
-15 -47 -34 -21 -18 -74 -55 -118 -81 -43 -26 -99 -62 -124 -81 -24 -19 -47
-34 -50 -34 -3 0 -20 -10 -37 -22 l-32 -22 30 36 c17 20 35 37 40 37 6 1 48
37 95 81 47 44 88 81 92 82 42 15 628 607 652 659 5 10 12 19 16 19 9 0 145
161 145 171 0 5 7 14 17 21 25 20 98 129 98 148 0 9 5 21 12 28 6 6 9 14 6 17
-2 3 -56 -44 -119 -105 -63 -60 -118 -110 -122 -110 -8 0 13 26 135 165 122
139 186 222 197 253 7 20 23 60 36 87 51 112 43 121 -35 38 -224 -240 -301
-313 -179 -168 42 50 87 106 101 125 13 19 43 55 66 80 50 53 122 155 122 173
0 7 7 25 15 41 9 16 17 44 20 62 5 41 35 146 45 159 9 11 31 122 56 275 9 58
19 118 21 134 9 46 -18 27 -35 -25 -33 -102 -149 -311 -203 -367 -14 -15 -43
-53 -63 -85 -21 -33 -56 -78 -78 -100 -23 -23 -60 -67 -83 -97 -22 -30 -61
-75 -85 -100 -25 -25 -94 -99 -155 -164 -60 -65 -121 -128 -134 -139 -34 -30
-221 -209 -298 -284 -34 -35 -66 -63 -71 -63 -4 0 -39 -30 -77 -67 -39 -38
-97 -89 -130 -114 -33 -26 -73 -61 -90 -79 -16 -17 -52 -48 -80 -68 -27 -20
-68 -53 -90 -74 -22 -21 -68 -59 -102 -85 -33 -27 -99 -78 -146 -115 -47 -38
-90 -68 -96 -68 -6 0 -11 -4 -11 -9 0 -6 -20 -24 -44 -41 -26 -19 -51 -48 -62
-72 -10 -23 -23 -46 -29 -52 -5 -6 -21 -35 -35 -65 -14 -30 -37 -71 -51 -90
-30 -43 -129 -226 -129 -241 0 -5 17 -10 38 -10 20 -1 69 -7 107 -16 112 -24
216 -43 224 -42 14 4 128 -14 140 -21 8 -5 -14 -23 -63 -51 -42 -24 -76 -47
-76 -51 0 -10 -143 -99 -158 -99 -7 0 -12 -4 -12 -9 0 -9 -117 -85 -194 -126
-23 -12 -55 -34 -70 -48 -15 -14 -47 -35 -71 -46 -51 -24 -325 -201 -357 -230
-11 -11 -44 -32 -73 -46 -28 -15 -64 -37 -79 -50 -15 -13 -58 -43 -94 -66 -37
-23 -105 -68 -152 -98 -47 -31 -102 -65 -123 -75 -21 -11 -49 -30 -63 -43 -14
-12 -46 -34 -71 -49 -57 -32 -165 -103 -178 -118 -5 -6 -27 -19 -47 -30 -20
-10 -69 -45 -110 -77 -40 -32 -86 -65 -103 -73 -40 -20 -163 -127 -197 -172
-28 -38 -47 -88 -68 -186 -12 -54 -10 -147 6 -247 l6 -40 77 29 c42 15 98 38
125 49 27 12 56 20 64 19 14 -3 62 -118 62 -150 0 -10 3 -18 8 -18 4 0 20 -35
36 -77 48 -132 76 -196 107 -242 16 -25 29 -51 29 -58 0 -15 38 -95 49 -103 9
-7 101 -165 101 -173 0 -4 16 -28 35 -53 47 -61 65 -100 23 -49 -18 22 -69 76
-113 121 -44 45 -119 123 -167 175 -48 52 -124 134 -170 182 -46 49 -89 99
-96 113 -7 13 -16 24 -21 24 -5 0 -42 39 -82 86 l-74 86 -90 -6 c-49 -3 -114
-8 -143 -12 -32 -4 -58 -2 -64 4 -7 7 9 12 48 16 33 4 73 11 90 16 17 6 46 10
65 10 60 0 63 11 21 71 -21 30 -43 66 -51 80 -7 14 -30 45 -51 69 -21 24 -44
55 -51 69 -22 43 -102 155 -121 169 -10 7 -16 18 -13 23 4 5 -1 9 -9 9 -9 0
-16 -4 -16 -9 0 -5 -8 -11 -17 -14 -75 -24 -194 -71 -275 -110 -54 -26 -106
-47 -115 -47 -10 0 -31 -9 -48 -20 -31 -20 -69 -25 -124 -14 -28 6 -42 28 -23
36 4 1 24 32 44 68 69 126 79 143 110 173 16 17 47 54 68 82 21 28 62 71 92
95 29 24 77 68 106 97 30 29 57 51 60 50 9 -2 143 92 160 112 6 8 12 12 12 8
0 -4 39 18 88 48 128 80 280 153 377 181 112 32 143 46 186 85 49 44 51 45 42
22 -11 -28 -62 -66 -122 -92 -31 -13 -58 -26 -61 -30 -3 -4 -32 -18 -65 -30
-33 -13 -71 -29 -85 -37 -14 -7 -79 -41 -145 -74 -67 -33 -136 -73 -155 -90
-18 -16 -43 -33 -54 -36 -28 -8 -166 -112 -166 -124 0 -6 -6 -10 -13 -10 -18
0 -193 -180 -234 -241 -17 -25 -46 -78 -64 -117 -17 -40 -35 -72 -39 -72 -9 0
-32 -61 -26 -68 8 -8 26 9 26 24 0 21 60 111 110 164 23 25 53 62 66 82 13 20
35 45 50 55 14 10 61 50 105 90 43 39 101 84 128 99 28 15 51 30 51 34 0 10
123 83 175 104 21 9 42 21 45 25 7 11 106 61 120 61 25 0 -7 -23 -76 -56 -41
-20 -81 -42 -89 -51 -9 -8 -48 -38 -88 -67 -153 -110 -260 -263 -240 -343 5
-24 23 -32 23 -10 0 6 11 36 25 65 13 29 23 54 22 56 -4 8 48 58 113 109 36
28 70 57 76 64 6 7 60 39 120 70 60 31 111 60 114 64 5 7 136 59 148 59 2 0
-3 -6 -10 -13 -16 -16 -133 -87 -143 -87 -16 0 -87 -65 -115 -105 -17 -24 -37
-50 -45 -59 -23 -22 -43 -88 -35 -111 6 -17 11 -13 32 30 29 55 87 120 163
179 52 39 155 96 176 96 7 0 44 15 83 34 39 18 105 45 146 59 41 14 103 38
138 52 35 14 101 35 147 47 47 11 85 24 85 28 0 8 38 20 82 26 38 5 125 45
212 98 42 25 80 46 86 46 5 0 18 8 28 18 10 9 50 43 89 75 39 32 102 93 139
135 37 42 76 86 88 97 12 12 39 47 61 80 22 32 59 81 82 108 23 28 51 69 62
92 11 23 30 55 44 71 29 36 94 144 99 164 2 8 12 29 24 45 11 17 51 92 89 168
37 75 72 137 76 137 5 0 9 7 9 15 0 9 8 27 17 42 17 25 17 26 -7 19 l-25 -7
25 20 c52 43 78 79 137 191 28 52 67 124 87 158 20 35 36 68 36 73 0 9 56 113
72 134 4 6 27 48 51 95 24 47 61 110 81 140 20 30 36 60 36 68 0 12 28 62 41
72 3 3 15 23 27 45 17 33 104 125 119 125 9 0 148 112 156 125 4 7 28 27 55
43 26 16 65 46 87 67 60 56 121 105 132 105 5 0 29 19 54 43 61 60 145 127
157 127 6 0 15 7 19 15 5 9 43 43 83 76 41 33 101 83 134 112 81 72 95 79 66
31 -69 -111 -115 -162 -579 -630 -285 -288 -381 -400 -381 -443 0 -6 -4 -11
-8 -11 -11 0 -66 -100 -59 -107 3 -2 18 10 34 28 15 18 51 58 78 88 28 31 68
79 90 106 21 28 236 246 476 485 377 376 578 590 554 590 -4 0 7 16 23 35 31
35 85 121 88 140 1 5 19 46 41 90 21 44 49 116 63 160 13 44 27 84 32 90 4 5
8 17 8 28 0 15 11 9 55 -28 30 -26 55 -51 55 -56z m-1950 -1414 c-22 -36 -38
-65 -35 -65 7 0 -44 -79 -66 -104 -11 -11 -19 -26 -19 -33 0 -16 5 -16 22 0
17 16 164 97 177 97 7 0 7 -10 0 -28 -7 -22 -28 -38 -87 -68 -42 -21 -79 -42
-82 -45 -3 -3 -41 -27 -85 -51 -60 -35 -81 -42 -83 -31 -3 13 43 84 60 91 12
6 108 139 108 151 0 6 6 14 13 17 8 3 35 34 61 69 26 36 49 65 52 65 2 0 -14
-29 -36 -65z m2689 -539 c-23 -10 -47 -19 -53 -20 -6 -1 -46 -19 -88 -39 -43
-20 -84 -37 -91 -37 -15 0 -158 -60 -167 -70 -10 -11 -81 -40 -98 -40 -9 0
-33 -10 -52 -21 -39 -24 -190 -91 -190 -84 0 4 -44 -13 -125 -50 -27 -12 -86
-37 -130 -55 -44 -18 -82 -35 -85 -39 -9 -11 -152 -71 -171 -71 -9 0 -24 -6
-31 -13 -14 -14 -109 -56 -137 -62 -26 -5 -142 -55 -176 -75 -16 -10 -59 -28
-94 -39 -36 -12 -67 -25 -70 -29 -8 -10 -150 -72 -166 -72 -13 0 -156 -61
-165 -70 -3 -3 -14 -7 -25 -8 -11 -2 -69 -28 -130 -57 -140 -67 -183 -85 -206
-85 -37 0 -18 -18 29 -29 113 -25 148 -28 213 -14 35 8 76 15 91 16 16 1 28 5
28 8 0 3 39 14 88 23 138 27 226 48 237 56 12 9 136 39 183 45 19 2 66 13 105
24 40 10 99 24 132 31 33 7 74 18 90 25 39 17 157 45 187 45 35 -1 -42 -35
-127 -56 -38 -9 -84 -23 -101 -30 -17 -8 -62 -21 -100 -29 -79 -18 -156 -41
-199 -60 -48 -21 -127 -44 -170 -51 -22 -3 -59 -15 -83 -25 -24 -11 -58 -22
-75 -24 -51 -8 -121 -31 -125 -43 -2 -6 27 -13 75 -17 73 -6 147 -18 268 -45
28 -6 73 -12 102 -15 85 -6 147 -17 160 -27 7 -5 16 -7 21 -4 5 3 42 -1 83 -9
150 -29 236 -44 329 -55 52 -7 100 -16 105 -20 12 -9 78 -20 160 -26 33 -3 92
-12 130 -20 39 -9 95 -20 125 -25 30 -6 91 -16 135 -24 44 -8 105 -17 135 -20
30 -2 78 -10 105 -16 28 -5 89 -17 138 -25 213 -35 276 -46 337 -58 36 -8 63
-14 60 -15 -3 -1 -68 -8 -145 -16 -77 -8 -163 -19 -190 -24 -28 -5 -101 -12
-163 -16 -62 -3 -123 -10 -137 -15 -13 -5 -93 -14 -177 -20 -84 -7 -159 -15
-168 -20 -15 -8 -91 -17 -218 -25 -40 -3 -101 -12 -136 -20 -34 -8 -105 -17
-156 -20 -52 -4 -102 -10 -111 -16 -10 -5 -42 -9 -71 -10 -52 0 -86 -5 -198
-28 -30 -6 -88 -14 -129 -17 -72 -5 -118 -13 -215 -33 -27 -6 -79 -13 -115
-16 -69 -6 -131 -16 -246 -40 -38 -8 -91 -14 -117 -15 -26 0 -49 -4 -52 -9 -4
-5 -41 -12 -84 -16 -69 -6 -130 -17 -270 -46 -24 -5 -69 -11 -100 -14 -67 -6
-90 -10 -197 -35 -44 -11 -107 -22 -140 -25 -58 -5 -122 -16 -285 -50 -41 -9
-113 -23 -160 -31 -119 -21 -213 -40 -293 -58 -37 -9 -87 -18 -110 -21 -76 -9
-162 -28 -172 -36 -5 -5 -25 -9 -45 -9 -19 0 -49 -4 -67 -9 -23 -7 -30 -6 -27
2 5 13 116 96 124 94 7 -2 85 58 120 91 13 13 38 31 55 39 35 18 301 210 359
260 22 18 43 33 48 33 5 0 34 19 64 43 135 103 169 127 178 127 6 0 24 13 41
28 35 34 165 125 165 118 0 -3 27 16 60 42 33 27 72 55 87 62 46 24 133 82
133 90 0 4 17 15 38 26 56 29 186 116 195 131 4 7 13 13 19 13 14 0 133 77
164 106 13 11 48 33 79 49 31 15 62 34 69 40 13 14 167 111 179 114 4 0 11 1
15 1 5 0 17 8 28 18 23 21 124 84 124 77 0 -7 154 95 162 108 4 7 8 9 8 5 0
-8 110 62 190 120 24 18 63 41 85 51 22 10 47 25 55 33 20 19 174 108 188 108
6 0 17 6 24 14 16 16 112 66 137 71 19 4 164 68 171 75 10 11 62 30 80 30 11
0 46 9 78 20 45 16 92 21 201 24 79 3 145 6 147 9 3 3 104 4 226 3 l220 -1
-43 -19z m-3294 -255 c-7 -12 -155 -95 -174 -97 -7 -2 -23 -11 -35 -22 -11
-11 -35 -27 -53 -36 -24 -12 -35 -28 -49 -68 -9 -29 -22 -56 -28 -60 -6 -4 -8
-8 -4 -8 4 0 0 -21 -9 -46 -13 -38 -25 -52 -72 -81 -31 -20 -98 -63 -150 -97
-52 -34 -97 -61 -100 -61 -9 0 -85 -48 -96 -61 -15 -17 -75 -56 -75 -49 0 3
-13 -3 -30 -15 -16 -12 -30 -19 -30 -15 0 6 51 87 60 95 4 3 37 43 74 90 38
47 105 118 149 157 45 40 85 80 90 88 4 8 12 15 17 15 5 0 59 34 121 75 61 41
119 75 128 75 17 0 40 11 181 85 96 50 93 48 85 36z m180 -126 c-93 -63 -173
-115 -178 -115 -4 0 -43 -27 -85 -60 -42 -32 -78 -57 -80 -55 -3 2 -38 -19
-80 -48 -41 -29 -112 -76 -156 -106 -45 -30 -99 -69 -120 -87 -22 -19 -46 -34
-53 -34 -7 0 -34 -20 -58 -45 -36 -36 -45 -51 -45 -80 0 -19 5 -35 11 -35 12
0 151 79 159 91 9 12 110 69 124 69 7 0 21 8 32 18 24 23 146 95 194 115 20 8
43 21 51 30 9 8 65 41 125 72 60 31 123 67 139 79 44 32 85 49 79 32 -4 -11
-47 -38 -65 -40 -3 -1 -43 -26 -89 -56 -46 -30 -95 -62 -109 -70 -67 -39 -135
-83 -148 -95 -19 -19 -129 -85 -141 -85 -6 0 -15 -6 -19 -13 -9 -15 -155 -109
-163 -105 -6 3 -65 -37 -93 -63 -10 -9 -35 -25 -55 -35 -48 -25 -172 -113
-172 -123 0 -4 -11 -13 -25 -19 -32 -15 -175 -122 -175 -132 0 -4 -11 -12 -25
-18 -30 -14 -124 -84 -168 -125 -17 -16 -47 -37 -66 -47 -20 -10 -56 -36 -80
-59 -24 -22 -69 -57 -100 -78 -31 -20 -67 -47 -81 -59 -21 -18 -132 -65 -166
-70 -14 -2 26 76 66 131 16 22 44 69 61 105 18 36 41 74 50 85 10 11 38 58 62
105 50 96 195 342 206 350 13 9 71 110 71 123 0 7 8 22 18 33 23 25 112 172
112 185 0 12 28 57 52 83 10 11 18 22 18 25 1 16 20 32 47 40 l30 9 -43 -73
c-24 -40 -44 -77 -44 -82 0 -5 -9 -21 -20 -33 -23 -27 -84 -129 -86 -145 -2
-16 -64 -117 -87 -142 -11 -13 -18 -23 -14 -23 8 0 -79 -149 -103 -175 -10
-11 -32 -49 -50 -85 -17 -36 -39 -74 -49 -85 -24 -27 -101 -158 -101 -172 0
-7 -6 -18 -13 -25 -26 -26 -67 -93 -67 -108 1 -17 60 48 60 66 0 6 21 35 48
65 62 71 122 154 122 168 0 6 4 11 9 11 5 0 29 26 52 58 32 43 71 78 150 131
58 39 121 85 139 101 18 16 49 36 69 46 20 9 56 33 81 53 74 62 328 223 356
227 14 2 94 53 113 72 9 8 30 21 48 29 38 15 165 92 173 103 3 4 37 24 75 45
39 20 79 45 90 55 19 17 134 89 165 103 8 4 49 29 90 56 41 28 79 50 84 50 5
1 -66 -51 -159 -114z m-645 -67 c-19 -12 -37 -25 -40 -28 -13 -15 -95 -70
-104 -70 -6 0 -51 -39 -101 -85 -49 -47 -93 -85 -97 -85 -4 0 -28 -28 -55 -62
-26 -35 -68 -85 -92 -112 -24 -27 -50 -66 -58 -85 -24 -56 -79 -125 -124 -155
l-41 -28 25 49 c14 26 38 73 53 103 15 30 38 72 52 94 13 21 42 73 64 115 22
42 43 78 48 81 10 7 90 149 90 161 0 12 27 24 85 38 28 7 64 19 80 26 43 20
133 45 180 51 22 3 42 7 44 10 2 2 9 4 15 4 6 0 -5 -10 -24 -22z m439 -580
c-6 -12 -16 -27 -21 -32 -23 -28 -108 -159 -108 -167 0 -5 -3 -9 -7 -9 -5 0
-35 -32 -67 -70 l-59 -70 -113 0 c-87 0 -112 3 -108 13 3 6 41 37 85 67 44 30
85 60 92 65 32 28 167 124 167 120 0 -7 62 40 102 77 36 34 53 36 37 6z
m-1051 -589 c-9 -44 -8 -63 4 -99 18 -57 48 -69 174 -69 98 -1 176 19 283 73
29 15 50 23 47 18 -3 -5 -19 -15 -36 -22 -16 -7 -30 -16 -30 -20 0 -4 -37 -19
-82 -34 -46 -14 -96 -31 -113 -37 -16 -5 -60 -13 -97 -16 -58 -5 -74 -3 -121
20 -73 34 -90 63 -85 140 4 50 9 64 32 84 16 13 30 22 32 20 2 -2 -1 -28 -8
-58z m3597 -791 c-5 -13 -106 -82 -154 -106 -15 -6 -48 -30 -76 -52 -27 -22
-60 -44 -73 -50 -33 -14 -165 -105 -181 -124 -7 -9 -20 -16 -27 -16 -8 0 -14
-3 -14 -7 0 -11 32 -43 43 -43 11 0 146 -107 163 -129 10 -13 21 -12 85 8 41
12 84 27 95 33 31 15 177 4 260 -20 38 -11 106 -41 150 -67 43 -27 90 -54 104
-61 27 -15 140 -114 210 -185 118 -119 190 -196 190 -203 0 -11 99 -136 125
-158 11 -10 17 -17 12 -18 -8 0 98 -154 126 -182 9 -10 17 -23 17 -28 0 -12
69 -119 86 -135 6 -5 28 -39 48 -75 21 -36 41 -72 46 -80 14 -23 92 -168 126
-235 158 -309 205 -406 202 -415 -2 -7 -41 24 -88 69 -46 45 -85 81 -87 81 -8
0 -333 303 -333 310 0 4 -9 11 -19 16 -21 10 -217 189 -302 277 -31 31 -60 57
-64 57 -8 0 -113 97 -281 261 -45 43 -86 79 -91 79 -6 0 -32 24 -59 53 -27 28
-78 77 -114 107 -36 31 -93 82 -127 115 -104 100 -144 138 -208 193 -33 30
-94 86 -136 125 -42 40 -117 110 -167 157 -51 47 -92 90 -92 95 0 13 22 27
130 83 47 24 104 57 128 73 24 16 45 29 47 29 8 0 160 94 177 110 9 8 34 23
55 34 21 10 45 22 53 27 20 11 20 11 15 -3z m-1385 -1120 c-12 -40 -25 -77
-29 -83 -9 -12 -43 -130 -47 -162 -3 -29 -23 -88 -40 -121 -8 -15 -14 -34 -14
-42 0 -19 -50 -172 -61 -185 -8 -11 -44 -112 -69 -192 -7 -24 -16 -43 -20 -43
-4 0 -10 -8 -13 -17 -28 -93 -96 -236 -123 -258 -6 -5 -23 -28 -37 -51 -25
-41 -122 -114 -151 -114 -8 0 -17 -4 -20 -9 -11 -17 -102 -33 -185 -32 -96 1
-127 15 -57 25 25 4 46 11 46 17 0 5 11 9 25 9 86 0 277 155 332 270 15 30 30
57 34 60 12 8 68 138 74 169 3 14 19 62 35 106 17 44 40 112 50 150 10 39 26
84 35 102 9 18 27 75 40 128 22 88 55 154 89 177 6 4 11 11 11 15 0 12 108
164 112 159 3 -2 -5 -37 -17 -78z m765 7 c39 -14 86 -32 105 -40 19 -7 47 -16
62 -19 15 -3 33 -12 40 -20 15 -14 95 -58 113 -62 19 -3 165 -97 165 -105 0
-5 6 -9 13 -9 14 0 131 -82 161 -112 10 -11 43 -35 73 -54 29 -19 77 -57 106
-85 28 -28 76 -66 105 -85 28 -19 52 -39 52 -43 0 -4 32 -34 70 -67 150 -126
214 -193 227 -237 7 -24 13 -96 13 -168 0 -69 4 -139 10 -155 5 -16 11 -92 14
-169 6 -194 12 -293 25 -413 7 -56 9 -107 6 -112 -6 -9 10 -192 22 -260 5 -31
4 -34 -10 -22 -9 8 -28 33 -42 57 -14 25 -31 48 -38 52 -20 12 -127 149 -127
162 0 6 -4 11 -8 11 -11 0 -142 165 -142 179 0 5 -6 14 -14 18 -16 9 -90 101
-128 158 -14 22 -47 62 -72 89 -25 27 -46 54 -46 59 0 12 -91 127 -101 127 -4
0 -18 17 -30 38 -28 46 -259 340 -288 366 -11 11 -21 23 -21 29 0 10 -67 94
-113 141 -15 16 -44 52 -62 80 -19 28 -64 85 -100 126 -36 41 -65 80 -65 87 0
6 -8 18 -18 25 -10 7 -46 49 -80 93 -34 44 -68 87 -75 95 -46 52 -127 159
-127 167 0 5 -14 23 -30 40 l-30 31 62 16 c127 32 219 30 323 -9z m-1186
-1322 c-11 -26 -24 -50 -28 -53 -5 -3 -21 -41 -36 -85 -15 -44 -38 -103 -51
-132 -31 -65 -74 -190 -67 -196 2 -3 -5 -25 -15 -49 -11 -23 -23 -59 -27 -79
-6 -31 -4 -37 14 -42 11 -3 19 -2 18 2 -2 9 83 144 117 186 l25 29 -4 -64 c-3
-36 -9 -87 -15 -115 -6 -27 -13 -66 -16 -86 l-6 -37 -73 37 c-88 45 -130 77
-112 84 12 5 53 122 48 141 -1 4 12 36 28 70 17 33 32 72 34 86 6 33 47 128
86 204 18 33 30 64 28 69 -2 8 59 75 70 77 1 0 -7 -21 -18 -47z"/>
<path d="M1593 4126 c-34 -18 -65 -31 -68 -28 -3 3 -5 0 -5 -6 0 -7 5 -12 10
-12 6 0 10 -4 10 -10 0 -11 82 -131 127 -184 18 -22 33 -44 33 -48 0 -13 54
-90 89 -129 l29 -31 1 85 c2 163 20 258 52 278 6 3 11 13 13 21 1 9 8 24 16
34 13 16 13 17 -1 12 -9 -3 -42 -9 -73 -13 -71 -9 -129 7 -145 41 -6 13 -14
24 -18 24 -5 0 -36 -16 -70 -34z"/>
<path d="M6060 850 c-11 -7 -5 -10 23 -10 l37 0 0 -85 c0 -50 -4 -85 -10 -85
-5 0 -10 -9 -10 -20 0 -11 5 -20 10 -20 6 0 10 9 10 20 0 16 7 20 31 20 62 0
139 89 125 144 -6 26 -8 27 -78 25 -47 -1 -73 2 -76 10 -4 13 -41 14 -62 1z"/>
<path d="M5780 730 c0 -53 -2 -60 -20 -60 -18 0 -20 -7 -20 -85 0 -78 2 -85
20 -85 18 0 20 -7 20 -84 0 -58 -4 -86 -12 -89 -7 -3 5 -3 27 0 48 7 55 16 55
69 0 70 21 72 60 6 l35 -57 3 78 c2 44 7 77 13 77 6 0 8 9 4 19 -4 13 4 28 25
49 45 46 39 102 -11 102 l-29 0 0 -85 0 -85 -85 0 -85 0 0 85 0 85 35 0 c34 0
35 1 35 41 0 53 -15 79 -45 79 -24 0 -25 -3 -25 -60z"/>
<path d="M6303 663 c-9 -3 -13 -30 -13 -83 0 -52 -4 -80 -12 -82 -9 -3 -9 -6
0 -12 7 -4 12 -2 12 3 0 7 32 11 85 11 l84 0 3 -87 3 -88 33 32 c26 26 32 39
32 75 0 49 -13 68 -47 68 -13 0 -23 6 -23 14 0 9 -23 22 -56 33 -58 19 -71 36
-31 41 14 2 31 -6 47 -23 13 -14 27 -25 32 -25 4 0 8 27 8 59 0 44 -4 60 -16
65 -18 7 -123 7 -141 -1z"/>
<path d="M6637 663 c-4 -3 -7 -42 -7 -85 0 -67 -2 -78 -17 -78 -14 0 -15 -2
-4 -12 11 -10 14 -10 18 0 3 8 31 12 89 12 l84 0 0 -80 c0 -44 4 -80 9 -80 22
0 51 54 51 94 0 45 -13 66 -42 66 -10 0 -18 6 -18 13 0 8 -27 22 -61 33 -63
19 -77 37 -36 42 14 2 31 -6 47 -23 38 -41 50 -33 50 34 0 52 -2 59 -22 65
-31 8 -133 8 -141 -1z"/>
<path d="M6103 589 c-19 -19 -17 -89 3 -89 13 0 15 -13 12 -88 l-3 -87 33 3
c41 5 52 29 52 113 l0 59 -39 0 -40 0 -3 51 c-2 40 -5 48 -15 38z"/>
</g>
</svg>
