<?xml version="1.0" standalone="no"?>
<!DOCTYPE svg PUBLIC "-//W3C//DTD SVG 20010904//EN"
 "http://www.w3.org/TR/2001/REC-SVG-20010904/DTD/svg10.dtd">
<svg version="1.0" xmlns="http://www.w3.org/2000/svg"
 width="54.000000pt" height="54.000000pt" viewBox="0 0 54.000000 54.000000"
 preserveAspectRatio="xMidYMid meet">

<g transform="rotate(90, 27,27) translate(0.000000,54.000000) scale(0.100000,-0.100000) "
fill="#b50c0f" stroke="none">
<path d="M229 529 c-86 -13 -165 -70 -204 -148 -33 -66 -30 -194 7 -244 12
-16 25 -2 123 123 61 77 113 140 116 140 3 0 56 -63 116 -140 81 -103 113
-137 120 -128 32 42 43 149 21 220 -13 46 -86 131 -130 154 -41 21 -114 31
-169 23z"/>
<path d="M182 174 c-51 -64 -81 -111 -78 -120 19 -50 201 -72 281 -34 75 35
76 28 -20 149 -49 61 -91 111 -94 111 -3 0 -43 -48 -89 -106z"/>
</g>
</svg>
