<?xml version="1.0" standalone="no"?>
<!DOCTYPE svg PUBLIC "-//W3C//DTD SVG 20010904//EN"
 "http://www.w3.org/TR/2001/REC-SVG-20010904/DTD/svg10.dtd">
<svg version="1.0" xmlns="http://www.w3.org/2000/svg"
 width="54.000000pt" height="54.000000pt" viewBox="0 0 54.000000 54.000000"
 preserveAspectRatio="xMidYMid meet">

<g transform="rotate(45, 27,27) translate(0.000000,54.000000) scale(0.100000,-0.100000)"
fill="#D4BF0C" stroke="none">
<path d="M160 519 c-96 -43 -150 -123 -158 -230 -4 -57 -1 -75 22 -125 l27
-58 189 189 c104 104 186 193 183 198 -3 5 -24 18 -47 28 -57 26 -157 25 -216
-2z"/>
<path d="M295 240 l-189 -189 49 -22 c69 -31 163 -31 228 1 134 64 193 231
127 359 -11 23 -21 41 -23 41 -1 0 -87 -85 -192 -190z"/>
</g>
</svg>
