<?xml version="1.0" standalone="no"?>
<!DOCTYPE svg PUBLIC "-//W3C//DTD SVG 20010904//EN"
 "http://www.w3.org/TR/2001/REC-SVG-20010904/DTD/svg10.dtd">
<svg version="1.0" xmlns="http://www.w3.org/2000/svg"
 width="1102.000000pt" height="116.000000pt" viewBox="0 0 1102.000000 116.000000"
 preserveAspectRatio="xMidYMid meet">
<metadata>
Created by potrace 1.16, written by Peter Selinger 2001-2019
</metadata>
<g transform="translate(0.000000,116.000000) scale(0.100000,-0.100000)"
fill="#eaeaea" stroke="none">
<path d="M3976 1152 c-3 -6 -12 -9 -19 -6 -7 2 -18 -5 -25 -16 -15 -25 -4 -27
14 -2 12 16 13 15 14 -5 0 -12 -4 -25 -10 -28 -14 -8 -13 -21 3 -37 19 -19 47
-99 47 -134 0 -17 8 -37 20 -47 13 -10 20 -29 20 -50 0 -19 3 -37 7 -41 18
-18 43 -106 47 -166 1 -19 9 -48 18 -65 8 -16 18 -52 21 -80 l6 -50 -20 60
c-11 33 -24 64 -29 69 -6 6 -10 18 -10 27 0 10 -16 48 -35 86 -19 37 -35 62
-35 55 0 -7 7 -24 16 -38 9 -13 14 -27 11 -31 -4 -3 0 -11 9 -18 9 -6 18 -26
20 -45 2 -18 11 -44 19 -56 8 -12 18 -55 23 -96 5 -40 20 -96 33 -123 12 -28
23 -54 24 -60 3 -23 18 -45 31 -45 8 0 14 -8 13 -17 0 -11 -3 -13 -6 -5 -12
31 -19 7 -10 -35 5 -27 11 -59 12 -73 3 -39 16 -80 26 -80 5 0 9 5 9 10 0 6 9
29 19 53 36 78 51 119 51 141 0 11 9 32 20 46 11 14 20 32 20 40 0 9 4 20 9
25 12 13 211 515 211 532 0 7 5 13 10 13 6 0 10 -8 10 -19 0 -18 98 -261 109
-271 3 -3 7 -16 9 -30 3 -34 103 -294 113 -298 5 -2 7 -7 4 -12 -3 -4 6 -30
19 -57 13 -26 26 -55 29 -63 4 -11 7 -9 12 8 12 37 23 25 14 -15 -9 -38 -2
-103 10 -103 19 0 58 103 121 320 21 72 42 141 69 223 7 21 10 41 7 44 -3 4 1
14 9 23 8 9 19 40 25 68 5 28 13 59 18 69 14 27 44 115 49 143 2 14 8 34 13
45 16 38 69 210 65 213 -7 8 -54 -33 -55 -47 0 -11 4 -9 15 5 10 13 14 15 15
5 0 -8 -6 -22 -14 -30 -8 -9 -17 -27 -20 -41 -8 -41 -51 -150 -85 -217 -17
-34 -31 -69 -31 -76 0 -8 -11 -40 -25 -71 -14 -31 -25 -59 -26 -64 -3 -16 -11
-38 -20 -54 -5 -10 -19 -48 -31 -85 -25 -81 -34 -93 -40 -59 -3 14 -1 26 5 26
5 0 7 9 4 20 -3 11 0 18 6 17 10 -2 21 29 34 96 3 16 1 27 -6 27 -6 0 -11 -11
-11 -24 0 -14 -11 -46 -25 -72 -14 -26 -25 -55 -25 -65 0 -10 -5 -21 -10 -24
-6 -4 -8 -11 -5 -16 9 -14 -5 -49 -20 -49 -7 0 -24 30 -38 68 -14 37 -51 132
-82 212 -71 183 -109 284 -145 385 -42 118 -54 145 -62 145 -8 0 -3 -37 14
-105 7 -28 7 -40 -1 -43 -6 -2 -11 -13 -11 -25 0 -25 -16 -12 -22 18 -3 13
-10 0 -21 -37 -10 -31 -22 -60 -27 -63 -15 -9 -34 -57 -100 -245 -31 -91 -67
-184 -79 -207 -11 -23 -21 -49 -21 -56 0 -8 -7 -28 -15 -43 -8 -16 -15 -37
-15 -46 0 -10 -4 -18 -10 -18 -11 0 -8 70 4 89 13 21 -5 11 -29 -16 -22 -25
-24 -26 -25 -9 0 23 -31 129 -105 356 -29 91 -65 206 -80 255 -51 171 -62 199
-69 187z"/>
<path d="M8212 1000 c-1 -88 -4 -187 -7 -219 -2 -32 0 -72 4 -87 l7 -29 9 35
c7 29 9 31 12 12 3 -12 -1 -39 -8 -60 -10 -32 -13 -34 -20 -17 -7 18 -8 17 -8
-6 -1 -14 2 -29 7 -33 4 -4 8 -31 8 -59 3 -112 15 -280 21 -290 3 -6 1 -7 -5
-3 -8 5 -11 -27 -11 -114 1 -117 2 -121 22 -118 32 5 38 57 34 296 -2 157 0
218 9 230 10 14 28 17 91 16 192 -3 287 -3 408 -1 l130 2 3 -30 c1 -16 8 -40
14 -52 7 -13 8 -44 4 -77 -3 -33 -2 -57 4 -61 11 -7 3 -86 -10 -99 -13 -13
-13 -49 0 -41 6 4 10 -7 10 -24 0 -17 -4 -31 -8 -31 -15 0 -13 -76 3 -112 8
-18 15 -31 16 -28 10 41 8 71 -5 76 -9 3 -16 13 -16 21 0 13 3 13 16 2 14 -11
16 -9 14 27 -3 53 -1 64 8 64 4 0 6 -43 4 -96 -3 -95 -3 -96 20 -92 18 2 24
11 30 43 8 47 11 1082 3 1096 -4 5 -14 9 -25 9 -16 0 -18 -7 -13 -87 10 -188
10 -220 1 -283 -5 -36 -13 -66 -19 -68 -5 -2 -9 -8 -9 -13 0 -6 5 -7 10 -4 18
11 10 -52 -9 -69 -15 -14 -29 -16 -72 -10 -50 7 -53 6 -40 -9 13 -16 11 -16
-14 -3 -16 8 -33 12 -39 9 -14 -9 -59 -8 -74 1 -7 4 -12 1 -12 -8 0 -9 -5 -16
-11 -16 -5 0 -7 5 -4 10 7 11 -5 13 -50 10 -42 -3 -148 -3 -220 -1 l-60 3 40
12 c22 7 44 9 50 4 14 -12 22 -10 22 7 0 11 -11 13 -43 11 -24 -2 -41 0 -39 4
7 12 -62 20 -93 11 l-28 -8 1 251 0 251 -30 3 -30 3 -3 -161z"/>
<path d="M1080 1120 c-30 -32 -38 -57 -31 -103 3 -23 8 -28 23 -23 19 4 18 3
-3 -21 -13 -15 -19 -23 -12 -20 8 5 10 -5 8 -34 -2 -23 1 -53 6 -67 6 -16 6
-29 -2 -38 -6 -8 -9 -20 -6 -29 4 -8 2 -17 -4 -20 -5 -4 -3 -13 6 -21 12 -12
14 -36 12 -114 -2 -55 -6 -103 -10 -107 -4 -4 -16 -8 -27 -10 -15 -2 -20 3
-20 18 0 19 1 20 18 3 15 -16 17 -16 20 -1 2 9 -2 25 -8 36 -7 14 -7 21 0 21
5 0 10 7 10 15 0 8 -7 15 -15 15 -19 0 -32 29 -18 39 7 4 7 15 2 29 -18 47
-27 9 -23 -95 3 -60 4 -155 4 -213 0 -196 2 -355 5 -358 3 -4 45 -11 80 -15
20 -2 20 5 22 263 2 242 3 265 20 278 14 11 76 13 303 11 157 -2 290 -4 296
-6 17 -6 24 -154 9 -211 -3 -13 -2 -21 2 -19 4 3 9 -9 10 -26 1 -18 5 -43 8
-57 4 -17 3 -20 -3 -12 -7 10 -11 7 -14 -12 -5 -24 5 -36 15 -18 2 4 2 0 -1
-8 -8 -27 -9 -131 0 -136 4 -3 6 -16 4 -30 -3 -13 -2 -24 2 -24 17 1 31 18 35
45 4 27 4 26 6 -8 1 -36 3 -38 29 -35 l27 3 1 530 c0 583 -1 615 -23 615 -8 0
-12 -4 -9 -9 7 -11 -17 -21 -54 -21 -23 0 -27 -4 -27 -26 0 -17 2 -22 8 -13 4
7 5 17 2 23 -4 5 4 7 18 3 13 -4 31 -7 39 -7 10 0 7 -5 -8 -16 -21 -14 -33
-42 -13 -29 14 8 21 -46 18 -136 -1 -56 -5 -75 -14 -72 -9 4 -13 -5 -13 -23 1
-28 1 -29 17 -9 14 18 15 18 9 2 -3 -10 -6 -25 -6 -33 0 -8 -7 -14 -16 -14
-13 0 -15 -7 -10 -31 5 -25 3 -30 -9 -25 -10 4 -15 -1 -15 -14 0 -22 16 -27
23 -7 3 7 6 4 6 -6 1 -13 -5 -18 -21 -16 -13 1 -39 -1 -58 -6 -19 -5 -44 -9
-55 -10 -15 0 -19 -6 -17 -22 3 -21 -1 -23 -40 -22 -42 2 -42 2 -9 8 19 3 35
13 36 21 2 13 -25 15 -189 17 -105 2 -219 5 -254 7 -37 3 -60 1 -57 -5 4 -5 2
-9 -4 -9 -15 0 -25 21 -14 29 10 6 17 471 7 471 -3 0 -19 -14 -34 -30z"/>
<path d="M5675 1140 c-4 -6 -21 -16 -39 -24 -17 -7 -39 -21 -49 -30 -18 -19
-24 -51 -7 -41 6 3 17 0 25 -8 11 -12 12 -26 5 -70 -5 -30 -6 -65 -3 -78 4
-15 3 -20 -5 -15 -9 5 -12 -6 -11 -36 1 -24 4 -33 6 -20 2 12 10 34 17 47 12
23 13 22 13 -23 1 -26 1 -55 2 -64 0 -10 0 -28 -1 -40 0 -13 2 -38 5 -57 7
-41 -3 -131 -14 -131 -5 0 -10 12 -11 28 0 15 -4 -2 -8 -38 -7 -75 -5 -86 9
-39 l9 34 2 -30 c3 -33 2 -102 0 -125 -1 -8 -6 1 -12 20 -13 47 -31 65 -24 23
3 -17 5 -60 5 -95 -5 -211 -4 -251 9 -256 6 -2 12 -17 12 -33 0 -26 3 -29 30
-29 34 0 49 25 51 83 3 79 -3 1057 -6 1057 -2 0 -7 -5 -10 -10z"/>
<path d="M6585 1130 c-27 -9 -72 -20 -100 -24 -27 -5 -53 -12 -56 -18 -11 -17
-121 -14 -174 5 -72 27 -113 36 -193 42 -49 3 -72 2 -72 -6 0 -6 9 -13 20 -16
11 -3 20 -9 20 -13 0 -5 9 -12 20 -15 30 -10 24 -28 -7 -22 -26 5 -27 4 -8 -9
15 -11 47 -14 131 -13 121 2 144 -6 136 -48 -3 -13 1 -23 7 -23 7 0 10 3 8 8
-3 4 1 12 8 19 18 16 25 -24 26 -146 0 -53 4 -123 8 -156 4 -32 4 -77 0 -100
-4 -22 -4 -44 0 -50 8 -12 7 -29 -3 -70 -15 -59 -16 -61 -26 -45 -8 13 -10 12
-10 -2 0 -9 5 -20 10 -23 6 -3 10 -12 10 -18 0 -8 -4 -7 -9 2 -6 9 -9 -14 -9
-65 0 -43 -5 -92 -11 -107 -7 -18 -8 -42 -2 -67 7 -32 6 -40 -5 -40 -11 0 -13
-7 -8 -27 15 -63 48 -85 84 -55 24 20 28 55 35 320 l5 192 -22 1 -23 0 23 9
c12 5 22 12 22 16 0 3 -8 3 -17 0 -16 -6 -16 -5 -1 11 14 15 16 50 15 236 0
119 3 221 7 225 4 4 63 6 131 5 107 -2 126 0 144 16 28 24 27 31 -6 31 -16 0
-35 5 -43 11 -12 9 -12 10 3 5 25 -8 67 3 67 18 0 7 -17 10 -47 8 -36 -2 -44
0 -33 7 20 14 4 12 -55 -9z"/>
<path d="M9490 1138 c33 -12 23 -18 -27 -16 -27 1 -59 -2 -71 -6 -21 -7 -23
-13 -19 -44 6 -44 14 -79 21 -91 4 -5 1 -11 -6 -13 -8 -3 -8 -9 -1 -22 7 -12
6 -29 -2 -54 -10 -26 -10 -42 -2 -60 7 -14 7 -26 1 -30 -10 -8 -13 -73 -3 -66
4 2 9 -10 11 -26 3 -20 1 -27 -6 -21 -7 6 -12 -2 -13 -24 -2 -18 3 -38 11 -44
11 -9 11 -21 4 -57 -6 -27 -6 -50 -1 -55 5 -5 6 -35 3 -68 -3 -33 -2 -57 2
-55 13 8 9 -31 -4 -45 -7 -8 -8 -11 -3 -8 6 3 8 -24 5 -76 -3 -45 -5 -103 -5
-130 0 -36 -3 -46 -14 -42 -9 3 -11 0 -7 -10 4 -13 2 -14 -14 -5 -18 10 -20 7
-20 -29 l0 -40 308 2 307 2 3 51 3 51 -113 1 c-62 1 -119 -2 -127 -7 -9 -6
-24 -6 -38 0 -14 5 -23 5 -23 -1 0 -6 -5 -10 -11 -10 -5 0 -8 4 -5 8 5 9 -41
8 -51 -1 -3 -4 -18 -7 -32 -6 l-26 1 25 8 c21 7 16 8 -25 11 -27 1 -58 3 -68
3 -16 1 -18 17 -18 215 -1 117 1 215 4 217 3 3 107 6 231 6 l226 1 6 33 c11
61 5 69 -56 68 -30 -1 -81 -5 -113 -9 -80 -11 -52 -27 36 -20 41 4 67 2 67 -4
0 -8 -172 -16 -268 -12 -34 1 -47 12 -31 23 10 7 8 8 -7 4 -11 -4 -38 0 -60 7
l-39 14 -1 194 0 194 240 -3 c199 -2 244 0 260 12 11 9 16 21 12 32 -5 14 -14
15 -59 9 -28 -5 -65 -8 -82 -7 -109 6 -133 6 -129 0 3 -4 -21 -5 -53 -2 -32 2
-68 5 -80 4 -26 0 -31 25 -7 34 9 3 28 6 42 6 15 0 32 4 39 8 6 4 -24 7 -68 7
-44 0 -70 -3 -59 -7z"/>
<path d="M10 1120 c0 -11 6 -20 14 -20 7 0 19 -7 26 -16 12 -13 10 -14 -13 -3
-30 14 -43 8 -34 -16 7 -15 41 -19 142 -16 28 1 74 -1 103 -4 63 -8 71 -21 62
-96 -8 -60 5 -66 15 -6 4 23 12 48 19 56 6 9 7 12 1 9 -6 -4 -16 2 -23 12 -9
14 -8 19 4 24 32 12 43 -74 45 -364 2 -222 2 -220 -11 -200 -5 8 -7 25 -4 36
3 12 1 24 -4 28 -5 3 -8 28 -6 56 2 29 0 48 -6 45 -4 -3 -11 5 -13 17 -2 13
-5 2 -6 -24 0 -26 2 -49 7 -51 4 -3 7 -109 7 -236 0 -171 -3 -233 -12 -242
-17 -17 -16 -59 1 -82 11 -14 25 -17 58 -15 l43 3 3 504 c1 364 5 507 13 512
7 4 68 8 137 8 73 1 132 6 139 13 16 13 17 48 2 48 -8 0 -8 4 -1 13 14 16 -88
16 -138 -1 -52 -17 -100 -17 -373 2 -37 3 -72 8 -77 11 -5 3 -35 8 -65 10 -50
4 -55 3 -55 -15z"/>
<path d="M2377 1123 c2 -6 13 -13 24 -16 12 -3 17 -1 12 6 -4 6 2 8 18 4 13
-4 54 -7 92 -7 37 0 67 -4 67 -8 0 -11 -279 -12 -286 -1 -3 5 12 10 33 10 29
2 23 4 -22 9 -76 8 -104 -3 -99 -39 2 -14 7 -100 10 -191 3 -91 9 -169 14
-175 5 -6 3 -18 -5 -28 -13 -18 -13 -18 -18 0 -4 14 -5 14 -6 -4 0 -13 -5 -23
-9 -23 -5 0 -9 -7 -9 -15 0 -11 4 -12 13 -4 8 7 19 7 31 1 27 -15 162 -11 156
4 -3 8 -20 11 -44 10 -62 -5 -64 3 -61 202 2 97 5 178 7 180 2 2 84 4 182 4
209 -1 315 8 321 26 2 7 -5 12 -17 12 -12 0 -21 4 -21 10 0 5 -22 8 -52 5 -32
-2 -58 0 -67 8 -12 10 -14 9 -8 -5 4 -12 2 -18 -7 -18 -9 0 -13 10 -11 30 2
28 0 30 -29 29 -26 0 -28 -2 -11 -9 19 -8 5 -8 -161 2 -28 2 -40 -1 -37 -9z"/>
<path d="M10256 1104 c-10 -25 -7 -34 9 -28 10 4 15 0 15 -11 0 -9 5 -13 10
-10 6 3 10 1 10 -4 0 -6 -3 -11 -7 -11 -5 0 -9 -113 -10 -250 -1 -167 2 -250
9 -250 7 0 7 -5 1 -12 -5 -7 -8 -24 -6 -38 8 -61 11 -398 3 -430 -7 -30 -8
-23 -11 45 -4 124 -5 128 -16 155 -6 14 -13 34 -16 45 -3 11 -3 -14 1 -55 6
-83 6 -82 -3 -160 -7 -64 -1 -77 40 -80 76 -5 70 -24 68 207 -2 159 1 213 11
228 13 19 23 21 127 18 63 -1 117 -2 120 -2 3 -1 14 -16 24 -35 11 -19 22 -33
27 -30 4 3 5 -1 3 -8 -6 -15 47 -121 76 -153 10 -11 36 -59 59 -105 47 -100
58 -115 88 -124 16 -6 22 -3 22 9 0 13 4 14 20 5 23 -12 26 -4 7 19 -16 19
-42 99 -35 106 5 5 39 -59 57 -107 6 -16 17 -28 26 -28 21 0 19 12 -6 44 -12
15 -34 51 -49 79 -91 174 -130 247 -154 287 -14 25 -26 50 -26 55 0 6 20 23
45 39 67 42 113 103 135 180 24 86 19 130 -25 224 -37 77 -91 136 -127 138 -9
1 -30 6 -45 12 -52 19 -167 33 -310 37 -79 2 -147 6 -152 9 -5 3 -12 -1 -15
-10z m432 -76 c79 -24 153 -137 145 -220 -4 -44 -50 -168 -62 -168 -3 0 -12
-9 -19 -20 -12 -19 -11 -20 8 -8 11 7 20 16 20 21 0 4 5 5 10 2 6 -4 7 -11 4
-17 -4 -5 5 -2 20 7 24 16 31 31 27 63 -1 6 2 12 7 12 5 0 12 23 16 50 4 28
11 48 16 45 8 -5 7 -27 -6 -112 -5 -31 -89 -131 -101 -119 -3 3 0 13 8 22 13
16 11 15 -20 0 -19 -10 -29 -21 -23 -25 6 -4 0 -11 -14 -18 -13 -6 -24 -7 -24
-2 0 5 5 9 11 9 5 0 7 5 4 10 -3 5 -11 10 -16 10 -6 0 -8 -4 -4 -9 3 -5 1 -12
-3 -15 -5 -3 -8 -18 -6 -33 l4 -28 -12 28 c-7 15 -18 27 -25 27 -16 0 -17 -12
-1 -28 8 -8 8 -12 1 -12 -6 0 -16 7 -24 16 -7 9 -26 15 -48 14 -20 -1 -70 -1
-111 0 -61 2 -68 4 -40 10 26 5 29 8 11 9 -21 1 -22 3 -10 18 10 12 10 15 1 9
-7 -4 -26 -2 -42 6 -29 12 -30 15 -32 88 -4 126 -3 191 2 280 l5 85 40 5 c61
8 246 0 283 -12z"/>
<path d="M7345 1099 c-33 -5 -69 -13 -80 -18 -11 -5 -47 -19 -80 -31 -33 -13
-64 -29 -68 -37 -4 -7 -14 -13 -22 -13 -14 0 -72 -77 -92 -122 -8 -17 -20 -28
-33 -28 -12 0 -20 -7 -20 -17 -1 -10 -12 -31 -25 -48 -24 -29 -25 -29 -25 -7
0 13 4 31 9 41 7 13 6 18 -5 18 -8 0 -18 -17 -24 -39 -6 -21 -20 -46 -31 -56
-27 -26 -37 -204 -14 -259 8 -19 15 -45 15 -58 0 -39 65 -173 115 -235 49 -61
111 -112 171 -143 80 -41 116 -47 287 -47 167 0 168 0 230 31 81 40 181 128
172 152 -13 33 -30 25 -161 -75 -20 -15 -45 -30 -57 -34 -12 -3 -30 -13 -39
-21 -15 -14 -19 -13 -35 2 -13 13 -14 17 -3 13 16 -6 90 30 90 44 0 4 8 8 18
8 17 1 64 30 46 30 -5 0 15 14 44 30 28 17 52 35 52 40 0 17 -14 11 -65 -30
-27 -22 -61 -45 -75 -51 -14 -6 -45 -20 -70 -32 -49 -23 -69 -26 -148 -28 -74
-2 -226 46 -267 84 -11 11 -35 30 -52 44 -18 14 -33 30 -33 36 0 5 -10 24 -23
41 -37 49 -76 131 -87 183 -16 69 -13 191 5 242 8 24 15 54 15 67 0 12 6 29
13 36 7 7 27 36 44 63 42 66 86 107 153 143 66 35 182 54 272 46 76 -8 192
-59 250 -112 42 -38 60 -37 82 4 6 10 16 22 21 26 6 5 2 8 -7 8 -11 0 -20 -10
-24 -26 -6 -24 -8 -25 -17 -8 -6 11 -10 21 -10 24 2 12 -19 40 -38 51 -15 8
-19 8 -15 0 4 -6 4 -11 1 -11 -11 0 -69 34 -77 45 -5 6 -8 5 -8 -3 0 -8 -6
-12 -12 -9 -7 2 -12 9 -11 15 5 23 -167 44 -252 31z"/>
<path d="M2210 629 c0 -7 -8 -18 -17 -25 -11 -8 -13 -13 -5 -14 6 0 12 -5 12
-11 0 -5 -4 -7 -10 -4 -5 3 -10 1 -10 -5 0 -6 8 -10 18 -8 9 2 16 10 14 17 -1
7 2 10 8 6 12 -8 13 -55 1 -74 -11 -17 -3 -43 11 -35 6 4 5 -2 -1 -14 -6 -11
-11 -33 -11 -47 0 -20 -4 -26 -15 -21 -23 8 -18 -12 6 -24 16 -9 19 -17 13
-43 -3 -18 -10 -36 -13 -42 -19 -26 -32 -121 -23 -163 8 -35 7 -42 -5 -42 -8
0 -13 6 -10 13 2 6 1 21 -4 32 -5 13 -7 -2 -7 -42 0 -47 4 -64 17 -69 29 -12
603 -15 618 -3 7 7 13 22 13 35 0 19 -5 24 -27 25 -85 2 -145 1 -203 -4 -36
-3 -58 -4 -50 -1 8 3 22 8 30 11 8 3 33 8 55 10 22 1 41 6 42 11 2 4 25 7 53
6 27 0 50 3 50 7 0 10 -109 5 -133 -6 -11 -4 -28 -2 -42 5 -19 10 -27 10 -39
1 -11 -10 -19 -9 -35 1 -17 10 -23 10 -33 0 -11 -11 -10 -12 3 -7 17 6 30 -18
22 -41 -4 -13 -54 -5 -90 14 -12 7 -31 12 -42 12 -11 0 -23 5 -27 12 -5 8 9 9
54 5 39 -4 62 -3 62 3 0 6 -34 10 -79 10 -44 0 -82 4 -85 9 -9 13 -11 409 -3
417 3 4 107 8 229 10 123 2 226 3 231 4 12 0 8 48 -5 53 -7 2 -55 3 -105 1
-53 -1 -93 1 -93 7 0 5 -7 9 -15 9 -8 0 -15 -4 -15 -10 0 -5 -16 -9 -35 -8
-22 1 -32 5 -28 12 4 6 0 5 -9 -1 -21 -18 -186 -15 -215 4 -16 9 -23 10 -23 2z"/>
</g>
</svg>
