<?xml version="1.0" encoding="utf-8"?>
<!-- Generator: Adobe Illustrator 15.0.0, SVG Export Plug-In . SVG Version: 6.00 Build 0)  -->
<!DOCTYPE svg PUBLIC "-//W3C//DTD SVG 1.1//EN" "http://www.w3.org/Graphics/SVG/1.1/DTD/svg11.dtd">
<svg version="1.1" id="Layer_1" xmlns="http://www.w3.org/2000/svg" xmlns:xlink="http://www.w3.org/1999/xlink" x="0px" y="0px"
	 width="27px" height="27px" viewBox="-3.5 -3.5 27 27" enable-background="new -3.5 -3.5 27 27" xml:space="preserve">
<path fill="#6D624E" d="M21.508,20.666v-9.52l-2.8-3.981h-5.661c1.816-0.989,3.041-2.832,3.041-4.946
	c0-3.158-2.726-5.719-6.087-5.719c-3.363,0-6.089,2.561-6.089,5.719c0,2.115,1.225,3.957,3.042,4.946H1.292l-2.869,3.981v9.52H-3.5
	V23.5h27v-2.834H21.508z M10-0.655c1.689,0,3.059,1.287,3.059,2.874S11.689,5.093,10,5.093c-1.69,0-3.061-1.287-3.061-2.874
	S8.31-0.655,10-0.655z"/>
</svg>
